<?xml version="1.0" encoding="UTF-8"?><svg id="Layer_2" xmlns="http://www.w3.org/2000/svg" viewBox="0 0 71.69 55.12"><defs><style>.cls-1{stroke-linecap:round;stroke-linejoin:round;}.cls-1,.cls-2{fill:none;stroke:#333;stroke-width:1.74px;}.cls-2{stroke-miterlimit:10;}.cls-3,.cls-4{opacity:.8;}.cls-4{fill:#11827a;isolation:isolate;}</style></defs><g id="Layer_1-2"><g><g class="cls-3"><path class="cls-4" d="M62.52,10.97v4.9h-1.17v-4.9h-16.22v4.9h-1.17v-4.9H27.72v4.9h-1.17v-4.9H10.33v4.9h-1.19v-4.9H0v14.85H71.69V10.97h-9.17Z"/></g><g><path class="cls-2" d="M18.37,54.25c7.02,0,12.72-5.68,12.72-12.7s-5.69-12.7-12.72-12.7-12.72,5.68-12.72,12.7,5.69,12.7,12.72,12.7Z"/><path class="cls-2" d="M53.42,54.25c7.02,0,12.72-5.68,12.72-12.7s-5.69-12.7-12.72-12.7-12.72,5.68-12.72,12.7,5.69,12.7,12.72,12.7Z"/><path class="cls-2" d="M31.54,41.16h8.41"/><path class="cls-1" d="M17.42,6.92l.2-2.85c-.1-1.8-1.8-3.2-3.35-3.2l-2.1,.1c-2.15,.1-3.35,2-3.7,4L1.95,39.11c-.3,1.65,1.05,3.1,2.7,2.95"/><path class="cls-1" d="M54.22,6.92l-.2-2.85c.1-1.8,1.8-3.2,3.35-3.2l2.1,.1c2.15,.1,3.35,2,3.7,4l6.56,34.14c.3,1.65-1.05,3.1-2.7,2.95"/></g></g></g></svg>