<?xml version="1.0" encoding="UTF-8"?><svg id="Layer_2" xmlns="http://www.w3.org/2000/svg" viewBox="0 0 92.03 61.19"><defs><style>.cls-1,.cls-2,.cls-3{opacity:.8;}.cls-2{fill:#11827a;}.cls-2,.cls-3{isolation:isolate;}.cls-4,.cls-5{stroke:#000;stroke-width:1.51px;}.cls-4,.cls-5,.cls-3{fill:none;stroke-miterlimit:10;}.cls-5,.cls-3{stroke-linecap:round;}.cls-3{stroke:#fff;stroke-width:.58px;}</style></defs><g id="Layer_1-2"><g><path class="cls-5" d="M7.32,22.87c-1.39-.9-1.3-3.58,.73-4.68L38.43,1.13c2-1.1,4.49,.33,4.49,2.65v2.36"/><path class="cls-4" d="M22.41,39.56c4.03-2.01,4.74-8.75,1.59-15.07-3.16-6.32-8.98-9.81-13.01-7.81-4.03,2.01-4.74,8.75-1.59,15.07,3.16,6.32,8.98,9.81,13.01,7.81Z"/><path class="cls-4" d="M45.9,53.65c4.03-2.01,4.74-8.75,1.58-15.07-3.15-6.32-8.98-9.81-13.01-7.81-4.03,2.01-4.74,8.75-1.58,15.07,3.15,6.32,8.98,9.81,13.01,7.81Z"/><path class="cls-5" d="M49.36,47.67c2.65,1.14,5.67,.94,8.15-.53l29.23-17.34c2-1.18,4.53,.24,4.53,2.56v.9"/><path class="cls-4" d="M25.87,33.82l5.18,2.77"/><g class="cls-1"><path class="cls-2" d="M15.77,45.77c4.24-2.11,4.99-9.21,1.67-15.86-3.32-6.65-9.45-10.33-13.69-8.22-4.24,2.11-4.99,9.21-1.67,15.86,3.32,6.65,9.45,10.33,13.69,8.22Z"/><path class="cls-2" d="M40.49,60.6c4.24-2.11,4.99-9.21,1.67-15.86-3.32-6.65-9.45-10.33-13.69-8.22-4.24,2.11-4.99,9.21-1.67,15.86,3.32,6.65,9.45,10.33,13.69,8.22Z"/><path class="cls-3" d="M26.62,43.03c.34-1.97,1.33-3.51,2.83-4.24,2.53-1.24,5.88,.04,8.5,2.96"/><path class="cls-3" d="M1.64,27.99c.34-1.97,1.33-3.51,2.83-4.24,2.53-1.24,5.88,.04,8.5,2.96"/></g></g></g></svg>